<mxfile host="app.diagrams.net" agent="Mozilla/5.0 (Windows NT 10.0; Win64; x64; rv:137.0) Gecko/20100101 Firefox/137.0" version="26.2.14">
  <diagram name="Plant Health Monitoring - Updated with Decision" id="0">
    <mxGraphModel dx="1025" dy="439" grid="1" gridSize="10" guides="1" tooltips="1" connect="1" arrows="1" fold="1" page="1" pageScale="1" pageWidth="850" pageHeight="1100" math="0" shadow="0">
      <root>
        <mxCell id="0" />
        <mxCell id="1" parent="0" />
        <mxCell id="2" value="Plant Health IoT Device (Camera)" style="shape=rectangle;whiteSpace=wrap;html=1;fillColor=#FFFFFF;strokeColor=#000000;" parent="1" vertex="1">
          <mxGeometry x="300" y="20" width="160" height="60" as="geometry" />
        </mxCell>
        <mxCell id="3" value="IoT Gateway / MQTT Broker" style="shape=rectangle;whiteSpace=wrap;html=1;fillColor=#FFFFFF;strokeColor=#000000;" parent="1" vertex="1">
          <mxGeometry x="300" y="120" width="160" height="60" as="geometry" />
        </mxCell>
        <mxCell id="8" value="Is Plant Health OK? (Decision)" style="shape=rhombus;whiteSpace=wrap;html=1;fillColor=#FFF2CC;strokeColor=#000000;" parent="1" vertex="1">
          <mxGeometry x="300" y="640" width="160" height="80" as="geometry" />
        </mxCell>
        <mxCell id="11" value="Backend API (FastAPI / Node.js)" style="shape=rectangle;whiteSpace=wrap;html=1;fillColor=#FFFFFF;strokeColor=#000000;" parent="1" vertex="1">
          <mxGeometry x="301.92" y="866" width="160" height="60" as="geometry" />
        </mxCell>
        <mxCell id="12" value="Mobile App" style="shape=rectangle;whiteSpace=wrap;html=1;fillColor=#FFFFFF;strokeColor=#000000;" parent="1" vertex="1">
          <mxGeometry x="300" y="970" width="160" height="60" as="geometry" />
        </mxCell>
        <mxCell id="13" value="Capture Image" style="endArrow=block;html=1;align=center;verticalAlign=middle;" parent="1" source="2" target="3" edge="1">
          <mxGeometry relative="1" as="geometry" />
        </mxCell>
        <mxCell id="14" value="Forward MQTT Message" style="endArrow=block;html=1;align=center;verticalAlign=middle;" parent="1" source="3" edge="1">
          <mxGeometry relative="1" as="geometry">
            <mxPoint x="380" y="220" as="targetPoint" />
          </mxGeometry>
        </mxCell>
        <mxCell id="15" value="Store Image to S3" style="endArrow=block;html=1;align=center;verticalAlign=middle;" parent="1" edge="1">
          <mxGeometry x="-0.5" relative="1" as="geometry">
            <mxPoint x="380" y="280" as="sourcePoint" />
            <mxPoint x="380" y="320" as="targetPoint" />
            <mxPoint as="offset" />
          </mxGeometry>
        </mxCell>
        <mxCell id="16" value="Trigger on Upload" style="endArrow=block;html=1;align=center;verticalAlign=middle;" parent="1" edge="1">
          <mxGeometry relative="1" as="geometry">
            <mxPoint x="380" y="380" as="sourcePoint" />
            <mxPoint x="380" y="420" as="targetPoint" />
          </mxGeometry>
        </mxCell>
        <mxCell id="17" value="Invoke GenAI Model" style="endArrow=block;html=1;align=center;verticalAlign=middle;" parent="1" edge="1">
          <mxGeometry relative="1" as="geometry">
            <mxPoint x="380" y="480" as="sourcePoint" />
            <mxPoint x="380" y="520" as="targetPoint" />
          </mxGeometry>
        </mxCell>
        <mxCell id="18" value="Analyze Health" style="endArrow=block;html=1;align=center;verticalAlign=middle;" parent="1" target="8" edge="1">
          <mxGeometry relative="1" as="geometry">
            <mxPoint x="380" y="580" as="sourcePoint" />
          </mxGeometry>
        </mxCell>
        <mxCell id="19" value="No (Bad Health)" style="endArrow=block;html=1;align=center;verticalAlign=middle;" parent="1" source="8" edge="1">
          <mxGeometry relative="1" as="geometry">
            <mxPoint x="234.5454545454545" y="760" as="targetPoint" />
          </mxGeometry>
        </mxCell>
        <mxCell id="20" value="Save Alert" style="endArrow=block;html=1;align=center;verticalAlign=middle;" parent="1" edge="1">
          <mxGeometry relative="1" as="geometry">
            <mxPoint x="180" y="820" as="sourcePoint" />
            <mxPoint x="180" y="860" as="targetPoint" />
          </mxGeometry>
        </mxCell>
        <mxCell id="21" value="Fetch Health Alerts" style="endArrow=block;html=1;align=center;verticalAlign=middle;" parent="1" target="11" edge="1">
          <mxGeometry relative="1" as="geometry">
            <mxPoint x="250" y="890" as="sourcePoint" />
          </mxGeometry>
        </mxCell>
        <mxCell id="22" value="Display Notification" style="endArrow=block;html=1;align=center;verticalAlign=middle;" parent="1" source="11" target="12" edge="1">
          <mxGeometry relative="1" as="geometry" />
        </mxCell>
        <mxCell id="CEHYxZ733MY5xkHM5jU--23" value="" style="outlineConnect=0;dashed=0;verticalLabelPosition=bottom;verticalAlign=top;align=center;html=1;shape=mxgraph.aws3.aws_iot;fillColor=#5294CF;gradientColor=none;" vertex="1" parent="1">
          <mxGeometry x="355" y="220" width="50" height="60.5" as="geometry" />
        </mxCell>
        <mxCell id="CEHYxZ733MY5xkHM5jU--24" value="AWS IoT Core " style="text;html=1;align=center;verticalAlign=middle;whiteSpace=wrap;rounded=0;" vertex="1" parent="1">
          <mxGeometry x="405" y="235.25" width="110" height="30" as="geometry" />
        </mxCell>
        <mxCell id="CEHYxZ733MY5xkHM5jU--25" value="" style="sketch=0;outlineConnect=0;fontColor=#232F3E;gradientColor=none;fillColor=#7AA116;strokeColor=none;dashed=0;verticalLabelPosition=bottom;verticalAlign=top;align=center;html=1;fontSize=12;fontStyle=0;aspect=fixed;pointerEvents=1;shape=mxgraph.aws4.bucket;" vertex="1" parent="1">
          <mxGeometry x="355.96000000000004" y="320" width="48.08" height="50" as="geometry" />
        </mxCell>
        <mxCell id="CEHYxZ733MY5xkHM5jU--26" value="AWS S3 Bucket" style="text;html=1;align=center;verticalAlign=middle;whiteSpace=wrap;rounded=0;" vertex="1" parent="1">
          <mxGeometry x="420" y="330" width="100" height="30" as="geometry" />
        </mxCell>
        <mxCell id="CEHYxZ733MY5xkHM5jU--27" value="" style="sketch=0;points=[[0,0,0],[0.25,0,0],[0.5,0,0],[0.75,0,0],[1,0,0],[0,1,0],[0.25,1,0],[0.5,1,0],[0.75,1,0],[1,1,0],[0,0.25,0],[0,0.5,0],[0,0.75,0],[1,0.25,0],[1,0.5,0],[1,0.75,0]];outlineConnect=0;fontColor=#232F3E;fillColor=#ED7100;strokeColor=#ffffff;dashed=0;verticalLabelPosition=bottom;verticalAlign=top;align=center;html=1;fontSize=12;fontStyle=0;aspect=fixed;shape=mxgraph.aws4.resourceIcon;resIcon=mxgraph.aws4.lambda;" vertex="1" parent="1">
          <mxGeometry x="351.96" y="430" width="50" height="50" as="geometry" />
        </mxCell>
        <mxCell id="CEHYxZ733MY5xkHM5jU--28" value="" style="sketch=0;points=[[0,0,0],[0.25,0,0],[0.5,0,0],[0.75,0,0],[1,0,0],[0,1,0],[0.25,1,0],[0.5,1,0],[0.75,1,0],[1,1,0],[0,0.25,0],[0,0.5,0],[0,0.75,0],[1,0.25,0],[1,0.5,0],[1,0.75,0]];outlineConnect=0;fontColor=#232F3E;fillColor=#01A88D;strokeColor=#ffffff;dashed=0;verticalLabelPosition=bottom;verticalAlign=top;align=center;html=1;fontSize=12;fontStyle=0;aspect=fixed;shape=mxgraph.aws4.resourceIcon;resIcon=mxgraph.aws4.bedrock;" vertex="1" parent="1">
          <mxGeometry x="356.91999999999996" y="525" width="50" height="50" as="geometry" />
        </mxCell>
        <mxCell id="CEHYxZ733MY5xkHM5jU--29" value="AWS Bedrock (GenAI Model)" style="text;html=1;align=center;verticalAlign=middle;whiteSpace=wrap;rounded=0;" vertex="1" parent="1">
          <mxGeometry x="420" y="535" width="150" height="30" as="geometry" />
        </mxCell>
        <mxCell id="CEHYxZ733MY5xkHM5jU--30" value="" style="sketch=0;points=[[0,0,0],[0.25,0,0],[0.5,0,0],[0.75,0,0],[1,0,0],[0,1,0],[0.25,1,0],[0.5,1,0],[0.75,1,0],[1,1,0],[0,0.25,0],[0,0.5,0],[0,0.75,0],[1,0.25,0],[1,0.5,0],[1,0.75,0]];outlineConnect=0;fontColor=#232F3E;fillColor=#ED7100;strokeColor=#ffffff;dashed=0;verticalLabelPosition=bottom;verticalAlign=top;align=center;html=1;fontSize=12;fontStyle=0;aspect=fixed;shape=mxgraph.aws4.resourceIcon;resIcon=mxgraph.aws4.lambda;" vertex="1" parent="1">
          <mxGeometry x="160" y="760" width="50" height="50" as="geometry" />
        </mxCell>
        <mxCell id="CEHYxZ733MY5xkHM5jU--31" value="AWS Lambda (Result Handler )" style="text;html=1;align=center;verticalAlign=middle;whiteSpace=wrap;rounded=0;" vertex="1" parent="1">
          <mxGeometry x="30" y="770" width="120" height="30" as="geometry" />
        </mxCell>
        <mxCell id="CEHYxZ733MY5xkHM5jU--32" value="" style="outlineConnect=0;dashed=0;verticalLabelPosition=bottom;verticalAlign=top;align=center;html=1;shape=mxgraph.aws3.dynamo_db;fillColor=#2E73B8;gradientColor=none;" vertex="1" parent="1">
          <mxGeometry x="159" y="870.5" width="51" height="59.5" as="geometry" />
        </mxCell>
        <mxCell id="CEHYxZ733MY5xkHM5jU--33" value="AWS DynamoDB" style="text;html=1;align=center;verticalAlign=middle;whiteSpace=wrap;rounded=0;" vertex="1" parent="1">
          <mxGeometry x="20" y="896" width="110" height="30" as="geometry" />
        </mxCell>
        <mxCell id="CEHYxZ733MY5xkHM5jU--34" value="" style="endArrow=none;html=1;rounded=0;" edge="1" parent="1">
          <mxGeometry width="50" height="50" relative="1" as="geometry">
            <mxPoint x="210" y="890" as="sourcePoint" />
            <mxPoint x="230" y="890" as="targetPoint" />
          </mxGeometry>
        </mxCell>
        <mxCell id="CEHYxZ733MY5xkHM5jU--35" value="" style="endArrow=classic;html=1;rounded=0;" edge="1" parent="1">
          <mxGeometry width="50" height="50" relative="1" as="geometry">
            <mxPoint x="480" y="680" as="sourcePoint" />
            <mxPoint x="550" y="680" as="targetPoint" />
          </mxGeometry>
        </mxCell>
        <mxCell id="CEHYxZ733MY5xkHM5jU--36" value="yes " style="edgeLabel;html=1;align=center;verticalAlign=middle;resizable=0;points=[];" vertex="1" connectable="0" parent="CEHYxZ733MY5xkHM5jU--35">
          <mxGeometry y="2" relative="1" as="geometry">
            <mxPoint as="offset" />
          </mxGeometry>
        </mxCell>
        <mxCell id="CEHYxZ733MY5xkHM5jU--37" value="Pass" style="text;html=1;align=center;verticalAlign=middle;resizable=0;points=[];autosize=1;strokeColor=none;fillColor=none;" vertex="1" parent="1">
          <mxGeometry x="550" y="665" width="40" height="30" as="geometry" />
        </mxCell>
      </root>
    </mxGraphModel>
  </diagram>
</mxfile>
